<svg width="88" height="82" viewBox="0 0 88 82" fill="none" xmlns="http://www.w3.org/2000/svg">
<g opacity="0.1">
<path fillRule="evenodd" clipRule="evenodd" d="M90.6594 19.6222C90.6594 23.2593 89.7072 26.0298 87.514 28.2464C84.0015 31.7957 78.1951 32.7455 73.9079 30.1117C73.2102 29.6833 72.6067 29.315 72.0385 28.7824C71.5118 28.2871 71.0597 27.5203 70.4858 27.1323C69.6473 27.3587 54.3437 37.905 52.4061 39.2102C51.8295 39.5983 50.2553 40.7785 49.7059 40.9265C49.8674 41.6253 50.4844 42.5059 50.7685 43.2254C51.0995 44.0637 51.3063 45.5243 51.8295 45.5243H68.5144C68.9819 45.5243 69.449 44.1561 69.8169 43.6224C70.3055 42.9138 70.6584 42.4589 71.33 41.9318C78.2739 36.4844 87.7896 43.4868 84.3352 51.7019L83.1234 53.6959C82.403 54.5944 81.2697 55.5213 80.1464 56.0523C76.5386 57.7572 72.2368 56.4338 69.9203 53.2993C69.1837 52.3037 69.0349 51.195 68.5144 51.195H51.8295C51.2836 51.195 51.0641 52.8366 50.7919 53.5188C50.5113 54.218 49.8424 55.2765 49.7055 55.7932C50.5647 56.0247 63.844 65.2149 65.238 66.1538C66.1437 66.7644 66.8956 67.271 67.7859 67.8708C68.3626 68.2596 69.9368 69.4394 70.4858 69.5874C70.9448 69.2766 73.8257 65.1426 79.2834 65.1426C84.8426 65.1426 90.3557 69.9044 90.3557 75.5646C90.3557 79.2853 89.6948 81.6739 87.133 84.2626C83.8485 87.5816 78.4669 88.5073 74.2751 86.2966C72.9276 85.5853 72.1623 84.8604 71.1274 83.8062C70.2247 82.8855 69.5139 81.6106 69.0096 80.2751C68.3695 78.5794 68.3626 77.3923 68.3626 75.1051C66.525 73.862 47.813 61.0281 45.7629 59.9311C43.0111 61.4022 41.9424 62.3838 37.8755 62.3838C37.1167 62.3838 36.7053 62.317 36.0607 62.2253C33.5673 61.8702 34.8305 60.9352 30.8697 67.5658C29.7345 69.467 28.4325 71.4664 27.4095 73.4195C27.862 74.1017 28.4398 74.7449 28.7969 75.5425C29.783 77.7481 29.8272 80.7991 28.6747 82.9745C28.3544 83.5789 27.4533 84.8635 26.9801 85.2466C24.4094 87.326 21.427 88.2016 18.0671 86.8447C16.9269 86.3848 16.4003 85.9811 15.6168 85.1832C14.788 84.338 14.4074 84.0019 13.8346 82.8455C13.3214 81.8083 13.0523 80.7066 13 79.6057V78.8145C13.1561 75.4477 15.2989 72.2456 18.6445 71.1525C19.3784 70.9116 20.5113 70.677 21.3429 70.6758C21.918 70.6755 21.7154 70.7978 22.4046 70.8138L29.2302 59.3188C28.883 58.794 28.7662 58.7995 28.2952 58.4242C27.4341 57.737 26.3043 56.1047 25.7907 55.1305C23.398 50.5944 23.481 45.015 26.3173 40.7423L27.8439 38.7596C28.7581 37.7411 30.0667 36.9436 31.2019 36.176C31.3822 36.1065 31.5483 36.0412 31.7032 35.9786C30.2719 30.5841 28.845 25.1888 27.4141 19.7939C22.8052 19.8343 19.0463 16.0503 19.0463 11.3973C19.0463 6.75951 22.7668 3 27.3561 3C31.9454 3 35.6659 6.75951 35.6659 11.3973C35.6659 14.0357 34.4618 16.3886 32.5789 17.9285C34.0413 23.4438 35.5002 28.9596 36.9633 34.4749C37.3923 34.4202 37.2047 34.3366 37.7237 34.3366C39.4986 34.3366 40.7595 34.6288 42.1781 35.0467C47.5412 36.6282 43.2914 38.5569 51.3743 33.1103C52.8525 32.1146 67.4715 22.0093 68.3626 21.7684C68.3626 18.7303 68.4741 16.8765 69.8676 14.5528C70.2716 13.88 70.6445 13.4632 71.0916 12.8777C73.8572 9.25808 79.9281 7.98199 84.1902 10.0665C85.3731 10.6449 86.4145 11.3488 87.3621 12.2259L88.5377 13.643C89.7148 15.2893 90.6594 17.3408 90.6594 19.6222Z" fill="#7E818C"/>
</g>
</svg>
