<svg width="32" height="32" viewBox="0 0 32 32" fill="none" xmlns="http://www.w3.org/2000/svg">
<path fillRule="evenodd" clipRule="evenodd" d="M27.8952 8.11452C27.8952 9.23364 27.6022 10.0861 26.9274 10.7681C25.8466 11.8602 24.06 12.1525 22.7409 11.3421C22.5262 11.2102 22.3405 11.0969 22.1657 10.9331C22.0036 10.7807 21.8645 10.5447 21.6879 10.4253C21.4299 10.495 16.7211 13.74 16.125 14.1416C15.9475 14.261 15.4632 14.6241 15.2941 14.6697C15.3438 14.8847 15.5337 15.1557 15.6211 15.377C15.7229 15.635 15.7866 16.0844 15.9475 16.0844H21.0814C21.2252 16.0844 21.3689 15.6634 21.4821 15.4992C21.6325 15.2812 21.741 15.1412 21.9477 14.979C24.0843 13.3029 27.0122 15.4575 25.9493 17.9852L25.5764 18.5987C25.3548 18.8752 25.0061 19.1604 24.6604 19.3238C23.5503 19.8484 22.2267 19.4412 21.5139 18.4767C21.2873 18.1704 21.2415 17.8292 21.0814 17.8292H15.9475C15.7796 17.8292 15.712 18.3343 15.6283 18.5442C15.5419 18.7594 15.3361 19.0851 15.294 19.2441C15.5584 19.3153 19.6443 22.143 20.0732 22.4319C20.3519 22.6198 20.5833 22.7757 20.8572 22.9602C21.0346 23.0799 21.519 23.4429 21.6879 23.4884C21.8292 23.3928 22.7156 22.1208 24.3949 22.1208C26.1054 22.1208 27.8017 23.586 27.8017 25.3276C27.8017 26.4724 27.5984 27.2074 26.8102 28.0039C25.7995 29.0251 24.1437 29.3099 22.8539 28.6297C22.4393 28.4109 22.2038 28.1878 21.8853 27.8634C21.6076 27.5802 21.3889 27.1879 21.2337 26.7769C21.0368 26.2552 21.0346 25.8899 21.0346 25.1862C20.4692 24.8037 14.7117 20.8548 14.0809 20.5173C13.2342 20.9699 12.9054 21.2719 11.654 21.2719C11.4205 21.2719 11.294 21.2514 11.0956 21.2232C10.3284 21.1139 10.7171 20.8262 9.49838 22.8664C9.14908 23.4514 8.74845 24.0666 8.43369 24.6675C8.57291 24.8774 8.7507 25.0754 8.86058 25.3208C9.16399 25.9994 9.17759 26.9382 8.82297 27.6075C8.72444 27.7935 8.44718 28.1888 8.30157 28.3066C7.51059 28.9465 6.59293 29.2159 5.55912 28.7984C5.20829 28.6568 5.04623 28.5327 4.80517 28.2871C4.55015 28.0271 4.43304 27.9237 4.2568 27.5678C4.09889 27.2487 4.01609 26.9097 4 26.571V26.3275C4.04802 25.2916 4.70735 24.3063 5.73678 23.97C5.96259 23.8959 6.31118 23.8237 6.56703 23.8233C6.74399 23.8232 6.68165 23.8609 6.89373 23.8658L8.99389 20.3289C8.88708 20.1674 8.85112 20.1691 8.70622 20.0536C8.44126 19.8422 8.09362 19.3399 7.93559 19.0401C7.19938 17.6444 7.22493 15.9277 8.09764 14.613L8.56736 14.003C8.84864 13.6896 9.25128 13.4442 9.60058 13.208C9.65605 13.1866 9.70715 13.1665 9.75482 13.1473C9.31445 11.4874 8.87537 9.82732 8.43511 8.16735C7.01699 8.17978 5.86039 7.01548 5.86039 5.58379C5.86039 4.15677 7.00516 3 8.41725 3C9.82934 3 10.9741 4.15677 10.9741 5.58379C10.9741 6.39561 10.6036 7.11958 10.0243 7.59338C10.4742 9.29041 10.9231 10.9876 11.3733 12.6846C11.5053 12.6677 11.4476 12.642 11.6073 12.642C12.1534 12.642 12.5414 12.7319 12.9779 12.8605C14.6281 13.3471 13.3204 13.9406 15.8075 12.2647C16.2623 11.9584 20.7605 8.849 21.0346 8.7749C21.0346 7.84008 21.0689 7.26971 21.4977 6.5547C21.622 6.34768 21.7368 6.21943 21.8743 6.03931C22.7253 4.92556 24.5933 4.53292 25.9047 5.1743C26.2686 5.35227 26.5891 5.56885 26.8807 5.83874L27.2424 6.27477C27.6046 6.78132 27.8952 7.41254 27.8952 8.11452Z" fill="#D93C0B"/>
</svg>
