<svg width="132" height="24" viewBox="0 0 132 24" fill="none" xmlns="http://www.w3.org/2000/svg">
<path fillRule="evenodd" clipRule="evenodd" d="M103.367 6.82311C105.526 6.82311 107.292 8.59446 107.292 10.7595V15.3028C107.292 17.4679 105.526 19.2393 103.367 19.2393C101.208 19.2393 99.4418 17.4679 99.4418 15.3028V10.7595C99.4418 8.59446 101.208 6.82311 103.367 6.82311ZM14.4844 8.0846C14.4844 8.5962 14.3494 8.9859 14.0386 9.29768C13.5407 9.79694 12.7177 9.93053 12.1101 9.56007C12.0112 9.4998 11.9257 9.448 11.8451 9.37309C11.7705 9.30342 11.7064 9.19556 11.6251 9.14097C11.5062 9.17283 9.33719 10.6563 9.06257 10.8399C8.98084 10.8945 8.75772 11.0605 8.67986 11.0813C8.70275 11.1796 8.7902 11.3034 8.83046 11.4046C8.87737 11.5225 8.90669 11.728 8.98084 11.728H11.3457C11.4119 11.728 11.4781 11.5356 11.5303 11.4605C11.5995 11.3608 11.6495 11.2968 11.7447 11.2227C12.7289 10.4565 14.0776 11.4414 13.588 12.597L13.4163 12.8774C13.3142 13.0038 13.1535 13.1342 12.9943 13.2089C12.483 13.4487 11.8733 13.2625 11.5449 12.8216C11.4405 12.6816 11.4194 12.5256 11.3457 12.5256H8.98084C8.90347 12.5256 8.87236 12.7566 8.83379 12.8525C8.79401 12.9509 8.6992 13.0998 8.67981 13.1724C8.80158 13.205 10.6837 14.4977 10.8813 14.6298C11.0096 14.7156 11.1162 14.7869 11.2424 14.8713C11.3241 14.926 11.5473 15.0919 11.6251 15.1127C11.6901 15.069 12.0985 14.4875 12.872 14.4875C13.6599 14.4875 14.4413 15.1573 14.4413 15.9535C14.4413 16.4768 14.3477 16.8128 13.9846 17.1769C13.519 17.6438 12.7563 17.774 12.1621 17.463C11.9712 17.363 11.8627 17.261 11.716 17.1127C11.5881 16.9832 11.4873 16.8039 11.4158 16.6161C11.3251 16.3776 11.3241 16.2106 11.3241 15.8888C11.0637 15.714 8.41157 13.9088 8.12099 13.7545C7.73098 13.9614 7.57951 14.0995 7.00309 14.0995C6.89554 14.0995 6.83724 14.0901 6.74586 14.0772C6.39246 14.0272 6.57151 13.8957 6.01013 14.8284C5.84923 15.0958 5.66469 15.377 5.5197 15.6518C5.58383 15.7477 5.66572 15.8382 5.71634 15.9504C5.8561 16.2606 5.86237 16.6898 5.69901 16.9958C5.65363 17.0808 5.52591 17.2615 5.45884 17.3153C5.09449 17.6078 4.67178 17.731 4.19557 17.5401C4.03396 17.4754 3.95931 17.4187 3.84827 17.3064C3.7308 17.1875 3.67686 17.1403 3.59567 16.9776C3.52293 16.8317 3.48479 16.6768 3.47738 16.5219V16.4106C3.4995 15.937 3.80321 15.4866 4.27741 15.3329C4.38142 15.299 4.54199 15.266 4.65985 15.2658C4.74136 15.2658 4.71265 15.283 4.81034 15.2852L5.77775 13.6683C5.72855 13.5945 5.71198 13.5953 5.64524 13.5425C5.52319 13.4459 5.36305 13.2162 5.29026 13.0792C4.95113 12.4412 4.9629 11.6564 5.3649 11.0554L5.58127 10.7765C5.71084 10.6332 5.89631 10.521 6.05721 10.4131C6.08276 10.4033 6.1063 10.3941 6.12826 10.3853C5.92541 9.62651 5.72315 8.86761 5.52035 8.10875C4.86711 8.11444 4.33435 7.58218 4.33435 6.92769C4.33435 6.27534 4.86167 5.74652 5.51213 5.74652C6.16259 5.74652 6.68991 6.27534 6.68991 6.92769C6.68991 7.29881 6.51925 7.62977 6.25238 7.84637C6.45965 8.62216 6.66642 9.398 6.8738 10.1738C6.9346 10.1661 6.90802 10.1543 6.98157 10.1543C7.23314 10.1543 7.41185 10.1954 7.61291 10.2542C8.37305 10.4767 7.7707 10.748 8.91633 9.98184C9.12583 9.8418 11.1978 8.42037 11.3241 8.38649C11.3241 7.95915 11.3399 7.6984 11.5375 7.37154C11.5947 7.2769 11.6476 7.21827 11.7109 7.13593C12.1029 6.62679 12.9634 6.44729 13.5675 6.74049C13.7351 6.82185 13.8827 6.92086 14.017 7.04424L14.1836 7.24357C14.3505 7.47514 14.4844 7.7637 14.4844 8.0846ZM61.5207 16.218C61.5207 14.5668 61.0697 13.2371 60.173 12.2344C59.2764 11.2262 58.1079 10.7248 56.6625 10.7248C55.1681 10.7248 53.9998 11.188 53.1628 12.1144C52.3205 13.0409 51.9021 14.3325 51.9021 15.9945C51.9021 17.7602 52.326 19.1226 53.1683 20.0764C54.0107 21.0355 55.2115 21.515 56.7603 21.515C58.2438 21.515 59.4122 21.0518 60.2545 20.1199C61.0968 19.1881 61.5207 17.8856 61.5207 16.218ZM63.9335 8.76291V23.3788H61.5207V20.7303C60.9392 21.7929 60.1893 22.6049 59.2818 23.1608C58.3743 23.7221 57.358 24 56.2332 24C54.1464 24 52.4564 23.2807 51.1794 21.8365C49.9023 20.3924 49.2611 18.485 49.2611 16.1089C49.2611 13.7057 49.8806 11.7929 51.125 10.3706C52.364 8.9482 54.0268 8.23973 56.1082 8.23973C57.3255 8.23973 58.3851 8.51222 59.2818 9.06267C60.1784 9.61307 60.9066 10.436 61.4554 11.5204V8.76286L63.9335 8.76291ZM42.3216 10.8229H39.648V8.76291H42.3216V2.87739H44.8648V8.76291H47.5384V10.8229H44.8648V23.3788H42.3216V10.8229ZM34.5344 16.218C34.5344 14.5668 34.0833 13.2371 33.1866 12.2344C32.2901 11.2262 31.1216 10.7248 29.6762 10.7248C28.1818 10.7248 27.0134 11.188 26.1765 12.1144C25.3342 13.0409 24.9158 14.3325 24.9158 15.9945C24.9158 17.7602 25.3397 19.1226 26.182 20.0764C27.0243 21.0355 28.2252 21.515 29.774 21.515C31.2575 21.515 32.4258 21.0518 33.2682 20.1199C34.1105 19.1881 34.5344 17.8856 34.5344 16.218ZM36.9471 8.76291V23.3788H34.5344V20.7303C33.9529 21.7929 33.2029 22.6049 32.2954 23.1608C31.3879 23.7221 30.3717 24 29.2468 24C27.16 24 25.47 23.2807 24.193 21.8365C22.916 20.3924 22.2748 18.485 22.2748 16.1089C22.2748 13.7057 22.8942 11.7929 24.1387 10.3706C25.3777 8.9482 27.0405 8.23973 29.1218 8.23973C30.3391 8.23973 31.3988 8.51222 32.2954 9.06267C33.192 9.61307 33.9202 10.436 34.4691 11.5204V8.76286L36.9471 8.76291ZM2.80404 20.763H4.57011C7.43397 20.763 9.41744 20.6376 10.5206 20.387C11.6238 20.1363 12.5421 19.7112 13.2757 19.1009C14.2321 18.3052 14.9603 17.2753 15.4548 16.0164C15.9548 14.7521 16.2047 13.3079 16.2047 11.6785C16.2047 10.0437 15.9602 8.60495 15.4657 7.36241C14.9712 6.1254 14.243 5.10083 13.2757 4.28887C12.5421 3.67307 11.6128 3.23709 10.4825 2.97552C9.35217 2.7139 7.38499 2.5832 4.57005 2.5832H2.80398L2.80404 20.763ZM0 23.3788V0H4.47775C7.78726 0 10.1185 0.168895 11.4716 0.50133C12.8248 0.839229 14.0148 1.40055 15.031 2.18525C16.3678 3.22069 17.384 4.53956 18.0742 6.14715C18.7644 7.75479 19.1067 9.60766 19.1067 11.7057C19.1067 13.7929 18.7644 15.6349 18.0797 17.237C17.3949 18.8392 16.3787 20.158 15.031 21.1934C14.0094 21.9782 12.8519 22.5395 11.5532 22.8774C10.2489 23.2098 8.22735 23.3787 5.47769 23.3787H4.47775L0 23.3788ZM117.915 23.3788V0H122.773C124.479 0 125.74 0.0872068 126.555 0.261566C127.365 0.441443 128.066 0.741148 128.647 1.16625C129.392 1.71665 129.968 2.43053 130.375 3.29703C130.783 4.16352 130.989 5.11717 130.989 6.1472C130.989 7.38422 130.696 8.41425 130.104 9.24255C129.517 10.0763 128.658 10.654 127.533 10.9864C128.908 11.199 130 11.8202 130.799 12.8447C131.598 13.8747 132 15.1717 132 16.7358C132 17.6731 131.832 18.5668 131.489 19.4169C131.152 20.267 130.679 20.9973 130.076 21.6077C129.419 22.2561 128.604 22.714 127.642 22.981C126.674 23.248 125.05 23.3788 122.773 23.3788H117.915ZM120.621 12.4251V20.9591H122.773C124.245 20.9591 125.31 20.8992 125.963 20.7848C126.615 20.6649 127.136 20.4633 127.533 20.1744C128.006 19.8365 128.381 19.3624 128.653 18.7521C128.93 18.1471 129.066 17.4769 129.066 16.7412C129.066 15.8855 128.903 15.1444 128.571 14.5177C128.245 13.891 127.767 13.4005 127.142 13.0463C126.772 12.8229 126.343 12.6648 125.854 12.5667C125.37 12.4741 124.61 12.4251 123.582 12.4251H122.773H120.621ZM120.621 2.41961V10.2344H122.773C124.745 10.2344 126.136 9.94551 126.941 9.37336C127.75 8.80111 128.153 7.83112 128.153 6.46871C128.153 4.97008 127.778 3.9237 127.028 3.31883C126.283 2.71931 124.859 2.41961 122.773 2.41961H120.621ZM94.3355 0H97.1395V14.5504C97.1395 16.9155 97.6394 18.6485 98.6448 19.7548C99.6501 20.861 101.221 21.4169 103.367 21.4169C105.514 21.4169 107.084 20.861 108.089 19.7548C109.095 18.6485 109.595 16.9155 109.595 14.5504V0H112.399V14.5504C112.399 17.7112 111.649 20.0764 110.149 21.6458C108.644 23.2153 106.383 24 103.362 24C100.346 24 98.0906 23.2153 96.5853 21.6458C95.0855 20.0764 94.3356 17.7112 94.3356 14.5504L94.3355 0ZM70.8869 23.3788V0H73.6583V8.9918H86.0483V0H88.8524V23.3788H86.0483V11.6404H73.6583V23.3788H70.8869Z" fill="#D93C0B"/>
</svg>
